<svg xmlns="http://www.w3.org/2000/svg" data-name="Layer 1" width="878.64266" height="484.43616" viewBox="0 0 878.64266 484.43616" xmlns:xlink="http://www.w3.org/1999/xlink">
  <path d="M998.40693,689.47885c-9.51624-7.99606-14.56946-21.16207-10.53124-33.02516s16.2094-20.36053 28.59018-19.53373c11.23675.77137 21.85124,8.15129 25.80407,18.59248s2.15507,22.56487-5.92867,30.24244" transform="translate(-160.67867 -207.78192)" fill="#f2f2f2"/>
  <path d="M1036.02461,656.61064c-1.40507-43.99578-12.85934-54.42958-12.85934-54.42958s-10.45427-4.86492-17.70656,43.52735c-6.64194,44.11282-16.56917,47.00636-16.56917,47.00636h47.23207S1037.42968,700.60642 1036.02461,656.61064Z" transform="translate(-160.67867 -207.78192)" fill="#f2f2f2"/>
  <path d="M853.99246,371.20574l-48.58373-26.33231a11.89636,11.89636 0 0 1 -5.90758-10.43881l.18907-52.94971a11.89636,11.89636 0 0 1 6.0875-10.33825l48.39466-26.71357a11.89636,11.89636 0 0 1 11.00116-.12024l48.58373,26.33231a11.89636,11.89636 0 0 1 5.90758,10.43881l-.18907,52.94971a11.89636,11.89636 0 0 1 -6.0875,10.33825l-48.39466,26.71357A11.89636,11.89636 0 0 1 853.99246,371.20574Z" fill="#2563eb"/>
  <path d="M851.99246,363.20574l-48.58373-26.33231a11.89636,11.89636 0 0 1 -5.90758-10.43881l.18907-52.94971a11.89636,11.89636 0 0 1 6.0875-10.33825l48.39466-26.71357a11.89636,11.89636 0 0 1 11.00116-.12024l48.58373,26.33231a11.89636,11.89636 0 0 1 5.90758,10.43881l-.18907,52.94971a11.89636,11.89636 0 0 1 -6.0875,10.33825l-48.39466,26.71357A11.89636,11.89636 0 0 1 851.99246,363.20574Z" fill="#2563eb"/>
  <path d="M853.99246,371.20574l-48.58373-26.33231a11.89636,11.89636 0 0 1 -5.90758-10.43881l.18907-52.94971a11.89636,11.89636 0 0 1 6.0875-10.33825l48.39466-26.71357a11.89636,11.89636 0 0 1 11.00116-.12024l48.58373,26.33231a11.89636,11.89636 0 0 1 5.90758,10.43881l-.18907,52.94971a11.89636,11.89636 0 0 1 -6.0875,10.33825l-48.39466,26.71357A11.89636,11.89636 0 0 1 853.99246,371.20574Z" stroke="#fff" stroke-miterlimit="10"/>
  <path d="M851.99246,363.20574l-48.58373-26.33231a11.89636,11.89636 0 0 1 -5.90758-10.43881l.18907-52.94971a11.89636,11.89636 0 0 1 6.0875-10.33825l48.39466-26.71357a11.89636,11.89636 0 0 1 11.00116-.12024l48.58373,26.33231a11.89636,11.89636 0 0 1 5.90758,10.43881l-.18907,52.94971a11.89636,11.89636 0 0 1 -6.0875,10.33825l-48.39466,26.71357A11.89636,11.89636 0 0 1 851.99246,363.20574Z" fill="none" stroke="#fff" stroke-miterlimit="10"/>
  <path d="M852.99246,367.20574l-48.58373-26.33231a11.89636,11.89636 0 0 1 -5.90758-10.43881l.18907-52.94971a11.89636,11.89636 0 0 1 6.0875-10.33825l48.39466-26.71357a11.89636,11.89636 0 0 1 11.00116-.12024l48.58373,26.33231a11.89636,11.89636 0 0 1 5.90758,10.43881l-.18907,52.94971a11.89636,11.89636 0 0 1 -6.0875,10.33825l-48.39466,26.71357A11.89636,11.89636 0 0 1 852.99246,367.20574Z" fill="none" stroke="#fff" stroke-miterlimit="10"/>
  <path d="M1038.64266,371.20574l-48.58373-26.33231a11.89636,11.89636 0 0 1 -5.90758-10.43881l.18907-52.94971a11.89636,11.89636 0 0 1 6.0875-10.33825l48.39466-26.71357a11.89636,11.89636 0 0 1 11.00116-.12024l48.58373,26.33231a11.89636,11.89636 0 0 1 5.90758,10.43881l-.18907,52.94971a11.89636,11.89636 0 0 1 -6.0875,10.33825l-48.39466,26.71357A11.89636,11.89636 0 0 1 1038.64266,371.20574Z" fill="#2563eb"/>
  <path d="M1036.64266,363.20574l-48.58373-26.33231a11.89636,11.89636 0 0 1 -5.90758-10.43881l.18907-52.94971a11.89636,11.89636 0 0 1 6.0875-10.33825l48.39466-26.71357a11.89636,11.89636 0 0 1 11.00116-.12024l48.58373,26.33231a11.89636,11.89636 0 0 1 5.90758,10.43881l-.18907,52.94971a11.89636,11.89636 0 0 1 -6.0875,10.33825l-48.39466,26.71357A11.89636,11.89636 0 0 1 1036.64266,363.20574Z" fill="#2563eb"/>
  <path d="M1038.64266,371.20574l-48.58373-26.33231a11.89636,11.89636 0 0 1 -5.90758-10.43881l.18907-52.94971a11.89636,11.89636 0 0 1 6.0875-10.33825l48.39466-26.71357a11.89636,11.89636 0 0 1 11.00116-.12024l48.58373,26.33231a11.89636,11.89636 0 0 1 5.90758,10.43881l-.18907,52.94971a11.89636,11.89636 0 0 1 -6.0875,10.33825l-48.39466,26.71357A11.89636,11.89636 0 0 1 1038.64266,371.20574Z" stroke="#fff" stroke-miterlimit="10"/>
  <path d="M1036.64266,363.20574l-48.58373-26.33231a11.89636,11.89636 0 0 1 -5.90758-10.43881l.18907-52.94971a11.89636,11.89636 0 0 1 6.0875-10.33825l48.39466-26.71357a11.89636,11.89636 0 0 1 11.00116-.12024l48.58373,26.33231a11.89636,11.89636 0 0 1 5.90758,10.43881l-.18907,52.94971a11.89636,11.89636 0 0 1 -6.0875,10.33825l-48.39466,26.71357A11.89636,11.89636 0 0 1 1036.64266,363.20574Z" fill="none" stroke="#fff" stroke-miterlimit="10"/>
  <path d="M1037.64266,367.20574l-48.58373-26.33231a11.89636,11.89636 0 0 1 -5.90758-10.43881l.18907-52.94971a11.89636,11.89636 0 0 1 6.0875-10.33825l48.39466-26.71357a11.89636,11.89636 0 0 1 11.00116-.12024l48.58373,26.33231a11.89636,11.89636 0 0 1 5.90758,10.43881l-.18907,52.94971a11.89636,11.89636 0 0 1 -6.0875,10.33825l-48.39466,26.71357A11.89636,11.89636 0 0 1 1037.64266,367.20574Z" fill="none" stroke="#fff" stroke-miterlimit="10"/>
  <path d="M946.64266,253.20574l-48.58373-26.33231a11.89636,11.89636 0 0 1 -5.90758-10.43881l.18907-52.94971a11.89636,11.89636 0 0 1 6.0875-10.33825l48.39466-26.71357a11.89636,11.89636 0 0 1 11.00116-.12024l48.58373,26.33231a11.89636,11.89636 0 0 1 5.90758,10.43881l-.18907,52.94971a11.89636,11.89636 0 0 1 -6.0875,10.33825l-48.39466,26.71357A11.89636,11.89636 0 0 1 946.64266,253.20574Z" fill="#2563eb"/>
  <path d="M944.64266,245.20574l-48.58373-26.33231a11.89636,11.89636 0 0 1 -5.90758-10.43881l.18907-52.94971a11.89636,11.89636 0 0 1 6.0875-10.33825l48.39466-26.71357a11.89636,11.89636 0 0 1 11.00116-.12024l48.58373,26.33231a11.89636,11.89636 0 0 1 5.90758,10.43881l-.18907,52.94971a11.89636,11.89636 0 0 1 -6.0875,10.33825l-48.39466,26.71357A11.89636,11.89636 0 0 1 944.64266,245.20574Z" fill="#2563eb"/>
  <path d="M946.64266,253.20574l-48.58373-26.33231a11.89636,11.89636 0 0 1 -5.90758-10.43881l.18907-52.94971a11.89636,11.89636 0 0 1 6.0875-10.33825l48.39466-26.71357a11.89636,11.89636 0 0 1 11.00116-.12024l48.58373,26.33231a11.89636,11.89636 0 0 1 5.90758,10.43881l-.18907,52.94971a11.89636,11.89636 0 0 1 -6.0875,10.33825l-48.39466,26.71357A11.89636,11.89636 0 0 1 946.64266,253.20574Z" stroke="#fff" stroke-miterlimit="10"/>
  <path d="M944.64266,245.20574l-48.58373-26.33231a11.89636,11.89636 0 0 1 -5.90758-10.43881l.18907-52.94971a11.89636,11.89636 0 0 1 6.0875-10.33825l48.39466-26.71357a11.89636,11.89636 0 0 1 11.00116-.12024l48.58373,26.33231a11.89636,11.89636 0 0 1 5.90758,10.43881l-.18907,52.94971a11.89636,11.89636 0 0 1 -6.0875,10.33825l-48.39466,26.71357A11.89636,11.89636 0 0 1 944.64266,245.20574Z" fill="none" stroke="#fff" stroke-miterlimit="10"/>
  <path d="M945.64266,249.20574l-48.58373-26.33231a11.89636,11.89636 0 0 1 -5.90758-10.43881l.18907-52.94971a11.89636,11.89636 0 0 1 6.0875-10.33825l48.39466-26.71357a11.89636,11.89636 0 0 1 11.00116-.12024l48.58373,26.33231a11.89636,11.89636 0 0 1 5.90758,10.43881l-.18907,52.94971a11.89636,11.89636 0 0 1 -6.0875,10.33825l-48.39466,26.71357A11.89636,11.89636 0 0 1 945.64266,249.20574Z" fill="none" stroke="#fff" stroke-miterlimit="10"/>
  <path d="M160.67867,484.43616a7.00786,7.00786 0 0 0 6.99008,7.00993h703.9959a7.00787,7.00787 0 0 0 6.99009-7.00993V207.78192a7.00622,7.00622 0 0 0 -6.99009-6.99992h-703.9959a7.00621,7.00621 0 0 0 -6.99008,6.99992Z" fill="#3f3d56"/>
  <path d="M167.67867,220.78192v257.6543a7.00711,7.00711 0 0 0 6.99008,7.00994h703.9959a7.00712,7.00712 0 0 0 6.99009-7.00994v-257.6543a7.00622,7.00622 0 0 0 -6.99009-6.99993h-703.9959A7.00621,7.00621 0 0 0 167.67867,220.78192Z" fill="#fff"/>
  <rect x="234.67867" y="313.43616" width="164" height="19" fill="#2563eb"/>
  <rect x="234.67867" y="356.43616" width="164" height="19" fill="#2563eb"/>
  <circle cx="405.67867" cy="323.43616" r="10" fill="#2563eb"/>
  <circle cx="405.67867" cy="366.43616" r="10" fill="#2563eb"/>
  <rect x="601.67867" y="313.43616" width="164" height="19" fill="#2563eb"/>
  <rect x="601.67867" y="356.43616" width="164" height="19" fill="#2563eb"/>
  <circle cx="772.67867" cy="323.43616" r="10" fill="#2563eb"/>
  <circle cx="772.67867" cy="366.43616" r="10" fill="#2563eb"/>
  <path d="M1038.64266,484.43616a7.00786,7.00786 0 0 1 -6.99008,7.00993h-703.9959a7.00787,7.00787 0 0 1 -6.99009-7.00993V207.78192a7.00622,7.00622 0 0 1 6.99009-6.99992h703.9959a7.00621,7.00621 0 0 1 6.99008,6.99992Z" fill="none" stroke="#3f3d56" stroke-miterlimit="10"/>
</svg>
