<svg xmlns="http://www.w3.org/2000/svg" data-name="Layer 1" width="869.99994" height="520.13854" viewBox="0 0 869.99994 520.13854" xmlns:xlink="http://www.w3.org/1999/xlink">
  <path d="M831.27068,327.45638c-.05566-.12109-5.47979-12.09961-7.30406-36.10547-1.67822-22.78809 4.27389-57.05176 25.68874-85.57324a7.2007,7.2007 0 0 1 5.6621-2.873h40.53027a7.23146,7.23146 0 0 1 6.90235,5.00195c16.70556,51.02832 2.46094,102.44043-11.50293,132.08594a7.18816,7.18816 0 0 1 -6.64843,4.33789H837.908A7.24624,7.24624 0 0 1 831.27068,327.45638Z" fill="#2563eb"/>
  <path d="M845.81836,204.06641a1.00005,1.00005 0 0 1 -1-1c0-20.40527-16.59473-37-37-37h-8a1,1 0 0 1 0-2h8a39.04328,39.04328 0 0 1 39,39A1.00005,1.00005 0 0 1 845.81836,204.06641Z" fill="#fff"/>
  <path d="M820.81836,170.06641a1.00005,1.00005 0 0 1 -1-1v-13a1,1 0 0 1 2,0v13A1.00005,1.00005 0 0 1 820.81836,170.06641Z" fill="#fff"/>
  <path d="M820.81836,195.06641a1.00005,1.00005 0 0 1 -1-1v-13a1,1 0 0 1 2,0v13A1.00005,1.00005 0 0 1 820.81836,195.06641Z" fill="#fff"/>
  <path d="M820.81836,220.06641a1.00005,1.00005 0 0 1 -1-1v-13a1,1 0 0 1 2,0v13A1.00005,1.00005 0 0 1 820.81836,220.06641Z" fill="#fff"/>
  <path d="M820.81836,245.06641a1.00005,1.00005 0 0 1 -1-1v-13a1,1 0 0 1 2,0v13A1.00005,1.00005 0 0 1 820.81836,245.06641Z" fill="#fff"/>
  <path d="M820.81836,270.06641a1.00005,1.00005 0 0 1 -1-1v-13a1,1 0 0 1 2,0v13A1.00005,1.00005 0 0 1 820.81836,270.06641Z" fill="#fff"/>
  <path d="M820.81836,295.06641a1.00005,1.00005 0 0 1 -1-1v-13a1,1 0 0 1 2,0v13A1.00005,1.00005 0 0 1 820.81836,295.06641Z" fill="#fff"/>
  <circle cx="484.99997" cy="18.5" r="18.5" fill="#2563eb"/>
  <circle cx="217.99997" cy="440.5" r="18.5" fill="#2563eb"/>
  <circle cx="460.99997" cy="496.5" r="18.5" fill="#2563eb"/>
  <circle cx="217.99997" cy="18.5" r="18.5" fill="#2563eb"/>
  <path d="M635.46435,454.88525c-4.9375,0-9.91992-1.45117-14.22168-4.40528l-151.75-108.71192a29.99027,29.99027 0 0 1 -10.23145-37.05957l48.81641-104.40235a29.99979,29.99979 0 0 1 37.05957-10.23144l151.75,108.71191a30.00008,30.00008 0 0 1 10.23144,37.05957l-48.81641,104.40235A29.9344,29.9344 0 0 1 635.46435,454.88525Z" fill="#2563eb"/>
  <path d="M466.46435,290.88525c-4.9375,0-9.91992-1.45117-14.22168-4.40528l-151.75-108.71192a29.99027,29.99027 0 0 1 -10.23145-37.05957l48.81641-104.40235a29.99979,29.99979 0 0 1 37.05957-10.23144l151.75,108.71191a30.00008,30.00008 0 0 1 10.23144,37.05957l-48.81641,104.40235A29.9344,29.9344 0 0 1 466.46435,290.88525Z" fill="#2563eb"/>
  <path d="M298.46435,127.88525c-4.9375,0-9.91992-1.45117-14.22168-4.40528l-151.75-108.71192a29.99027,29.99027 0 0 1 -10.23145-37.05957l48.81641-104.40235a29.99979,29.99979 0 0 1 37.05957-10.23144l151.75,108.71191a30.00008,30.00008 0 0 1 10.23144,37.05957l-48.81641,104.40235A29.9344,29.9344 0 0 1 298.46435,127.88525Z" fill="#2563eb"/>
</svg>
